<svg width="97" height="91" viewBox="0 0 97 91" fill="none" xmlns="http://www.w3.org/2000/svg">
<path fill-rule="evenodd" clip-rule="evenodd" d="M83.9087 35.3753C83.4602 34.7785 81.6742 32.9252 80.7291 32.4278C72.7198 26.514 62.6521 31.5434 61.0422 38.0179C70.0126 32.321 75.8994 34.4801 83.9087 35.3753ZM14.228 35.3753C22.2373 34.5163 28.5647 32.6285 36.8623 38.0179C34.8199 29.2104 20.9478 26.3327 14.228 35.3753ZM42.8772 36.0647C42.5808 36.4173 41.9962 36.9027 41.4356 37.3638C39.6895 38.9915 37.2707 40.839 36.646 43.2986C36.5178 44.8901 37.3588 48.37 37.8714 49.8078C38.6242 47.8545 39.273 44.1824 39.273 44.1824C39.273 44.1824 41.4355 42.4571 43.7902 40.5853C44.3829 40.0156 44.9996 39.4911 45.6724 38.6321C47.6106 35.7837 46.4974 29.7801 44.9996 26.8864C44.8234 27.646 43.5179 35.7663 42.8772 36.0647ZM8.78972 24.045C8.31718 25.5641 8.84586 27.5473 9.76693 28.4154C10.656 29.3287 11.577 29.1925 11.5369 29.2196C11.577 29.2106 11.5209 28.2789 11.7051 27.4741C11.7131 27.4108 12.4259 25.1504 12.434 25.1232C12.9145 23.5046 12.8825 20.3757 12.8104 20.249C12.7783 20.1043 9.54259 20.7896 8.78972 24.045ZM86.5518 20.249C86.4717 20.3757 85.9271 23.3031 86.3676 25.0392C86.5438 25.9706 86.9362 26.7751 87.2405 27.589C87.5609 28.3667 87.8173 29.2196 87.8173 29.2196C87.8173 29.2196 88.6503 29.0471 89.323 28.0795C89.9878 27.1572 90.3882 25.5387 90.0599 24.1643C89.5793 21.2254 86.6319 20.0953 86.5518 20.249ZM54.3866 40.5853C56.7493 42.4571 58.8957 44.1824 58.8957 44.1824C58.9037 44.1824 59.5446 47.8454 60.3054 49.8078C62.564 43.505 61.3225 42.1747 60.1211 40.6737C58.8717 39.1364 55.5639 36.3811 55.2996 36.0647C54.6829 35.7844 53.3534 27.646 53.1772 26.8864C51.7515 29.6354 50.5742 35.8018 52.5044 38.6321C53.1772 39.4911 53.7939 40.0156 54.3866 40.5853ZM14.2681 35.4195C14.3082 35.3833 14.3401 35.3496 14.3802 35.3134C14.3321 35.3406 14.2761 35.3573 14.228 35.3753L14.2681 35.4195ZM32.5532 33.9656C33.4102 33.2513 36.694 30.4207 36.3176 29.2903C32.4411 17.5711 17.9443 19.5227 16.1262 30.1388L18.4409 33.2498L32.5532 33.9656ZM77.7176 33.2498L80.0242 30.1388C78.9189 23.6914 72.8078 19.9566 67.0251 21.7471C61.4346 23.4833 59.1281 29.4367 60.1853 30.5851C61.1784 31.6702 62.492 33.0343 63.6053 33.9656L77.7176 33.2498ZM57.5822 17.9688C62.3477 15.6087 66.3284 12.1459 69.8525 7.98631C72.7278 4.56817 75.3708 4.48471 78.9189 6.32035C80.2725 7.02571 87.2006 10.9529 88.41 11.2785C90.7087 11.8933 89.5553 7.78544 87.513 6.51037C80.9854 2.396 73.5367 -2.10558 66.881 2.33441C64.0137 4.2514 57.8225 10.3717 54.6589 10.6068C53.057 10.7334 52.4643 11.3934 52.4242 13.1477C52.5524 13.9796 52.6326 14.8306 52.8328 15.6444C53.5696 18.7099 54.9311 19.298 57.5822 17.9688ZM10.8481 10.7261C10.8481 10.7261 16.9752 7.31568 19.0416 6.29383C22.5977 4.54861 25.1606 4.5883 27.9959 7.89793C32.2809 12.8894 35.2043 15.4032 41.2113 18.4505C42.7251 19.2191 43.8944 18.7021 44.5592 16.9569C44.9997 15.7904 45.3361 14.5151 45.4562 13.2582C45.6244 11.4587 44.9517 10.906 43.3738 10.5714C39.9058 9.839 35.8771 5.89029 32.7134 3.41264C28.5086 0.0939656 23.1904 -0.0697398 18.4008 1.89251C16.3264 2.73344 10.3596 6.14331 8.91792 8.30448C8.4694 8.97365 8.16498 10.3196 8.49336 10.9073C9.07804 11.9472 10.0552 10.9522 10.8481 10.7261ZM69.6362 78.5534C67.2734 77.9927 62.1876 77.336 59.969 78.2131C53.3533 80.7993 46.7217 80.9051 39.9859 78.9157C35.2444 77.5141 33.9469 77.4592 28.2683 78.5534C38.4481 96.0056 60.8981 94.2695 69.6362 78.5534ZM94.9135 52.0791C94.1766 51.202 87.2086 42.728 86.2635 42.1673C86.6639 46.6254 87.8734 45.198 87.4409 51.4826C86.8882 59.6933 81.562 59.1489 75.2027 59.176C69.412 59.2122 68.635 56.2574 64.0777 54.2047C60.7779 52.7217 56.8374 53.471 54.8191 56.9886C53.9621 58.4806 52.5765 59.3113 50.8305 59.1937C49.6771 59.1123 48.5158 59.1213 47.3625 59.1937C45.4002 59.3113 43.9985 58.4519 42.9333 56.6705C41.5236 54.3193 39.249 53.363 36.9103 53.4534C34.3874 53.5438 32.0968 54.8291 30.0144 56.5291C25.6974 60.0738 22.83 58.9317 18.2407 59.1849C13.5553 59.4471 10.4477 55.4695 10.4237 50.7402C10.4077 45.8572 11.1444 45.8487 11.633 42.1231C8.65353 44.212 4.67299 48.5441 2.27021 53.807C0.628309 57.4059 0.652319 61.2367 1.30107 65.0798C3.21529 76.347 16.4386 77.07 26.4982 76.0301C29.1092 75.7588 31.6963 75.2458 34.2913 74.7575C36.8703 74.2692 39.4173 74.0703 41.9402 75.1463C43.2217 75.6889 44.5111 76.402 45.8486 76.5648C48.8441 76.9266 51.9357 77.2529 54.747 75.7517C57.6063 74.2326 60.5537 73.9073 63.5091 74.7663C71.5504 77.0903 87.8413 78.0946 93.6561 71.2222C95.2739 69.2961 96.3151 67.1542 96.7076 64.5319C97.3563 60.1371 96.9959 55.9132 94.9135 52.0791ZM14.228 35.3753C14.188 35.4748 14.156 35.5763 14.116 35.6758C14.164 35.5944 14.212 35.5099 14.2681 35.4195L14.228 35.3753ZM83.6765 35.393C83.7566 35.4473 83.8286 35.5022 83.9087 35.5565C83.8206 35.5112 83.7245 35.4778 83.6364 35.4416L83.6765 35.393Z" fill="white"/>
</svg>
