    <svg width="289" height="257" viewBox="0 0 289 257" fill="none" xmlns="http://www.w3.org/2000/svg">
    <path fill-rule="evenodd" clip-rule="evenodd" d="M180.02 134.875C179.571 134.279 177.785 132.425 176.84 131.928C168.831 126.014 158.763 131.044 157.153 137.518C166.124 131.821 172.011 133.98 180.02 134.875ZM110.339 134.875C118.348 134.016 124.676 132.129 132.973 137.518C130.931 128.71 117.059 125.833 110.339 134.875ZM138.988 135.565C138.692 135.917 138.107 136.403 137.547 136.864C135.801 138.492 133.382 140.339 132.757 142.799C132.629 144.39 133.47 147.87 133.983 149.308C134.735 147.355 135.384 143.682 135.384 143.682C135.384 143.682 137.547 141.957 139.901 140.085C140.494 139.516 141.111 138.991 141.784 138.132C143.722 135.284 142.609 129.28 141.111 126.387C140.935 127.146 139.629 135.266 138.988 135.565ZM104.901 123.545C104.428 125.064 104.957 127.047 105.878 127.915C106.767 128.829 107.688 128.693 107.648 128.72C107.688 128.711 107.632 127.779 107.816 126.974C107.824 126.911 108.537 124.65 108.545 124.623C109.026 123.005 108.994 119.876 108.922 119.749C108.889 119.604 105.654 120.29 104.901 123.545ZM182.663 119.749C182.583 119.876 182.038 122.803 182.479 124.539C182.655 125.471 183.047 126.275 183.352 127.089C183.672 127.867 183.928 128.72 183.928 128.72C183.928 128.72 184.761 128.547 185.434 127.58C186.099 126.657 186.499 125.039 186.171 123.664C185.69 120.726 182.743 119.595 182.663 119.749ZM150.498 140.085C152.86 141.957 155.007 143.682 155.007 143.682C155.015 143.682 155.656 147.346 156.417 149.308C158.675 143.005 157.434 141.675 156.232 140.174C154.983 138.637 151.675 135.881 151.411 135.565C150.794 135.284 149.465 127.146 149.288 126.387C147.863 129.135 146.685 135.302 148.616 138.132C149.288 138.991 149.905 139.516 150.498 140.085ZM110.379 134.92C110.419 134.883 110.451 134.85 110.491 134.814C110.443 134.841 110.387 134.857 110.339 134.875L110.379 134.92ZM128.664 133.466C129.521 132.751 132.805 129.921 132.429 128.79C128.552 117.071 114.055 119.023 112.237 129.639L114.552 132.75L128.664 133.466ZM173.829 132.75L176.135 129.639C175.03 123.192 168.919 119.457 163.136 121.247C157.546 122.983 155.239 128.937 156.296 130.085C157.29 131.17 158.603 132.534 159.716 133.466L173.829 132.75ZM153.693 117.469C158.459 115.109 162.44 111.646 165.964 107.486C168.839 104.068 171.482 103.985 175.03 105.82C176.384 106.526 183.312 110.453 184.521 110.779C186.82 111.393 185.666 107.286 183.624 106.01C177.097 101.896 169.648 97.3945 162.992 101.835C160.125 103.752 153.934 109.872 150.77 110.107C149.168 110.234 148.575 110.894 148.535 112.648C148.664 113.48 148.744 114.331 148.944 115.145C149.681 118.21 151.042 118.798 153.693 117.469ZM106.959 110.226C106.959 110.226 113.086 106.816 115.153 105.794C118.709 104.049 121.272 104.088 124.107 107.398C128.392 112.39 131.315 114.903 137.322 117.951C138.836 118.719 140.006 118.202 140.67 116.457C141.111 115.291 141.447 114.015 141.567 112.758C141.736 110.959 141.063 110.406 139.485 110.072C136.017 109.339 131.988 105.39 128.825 102.913C124.62 99.5941 119.302 99.4304 114.512 101.393C112.438 102.234 106.471 105.643 105.029 107.805C104.581 108.474 104.276 109.82 104.605 110.407C105.189 111.447 106.166 110.452 106.959 110.226ZM165.747 178.053C163.385 177.493 158.299 176.836 156.08 177.713C149.464 180.299 142.833 180.405 136.097 178.416C131.356 177.014 130.058 176.959 124.379 178.053C134.559 195.506 157.009 193.77 165.747 178.053ZM191.025 151.579C190.288 150.702 183.32 142.228 182.375 141.667C182.775 146.126 183.984 144.698 183.552 150.983C182.999 159.193 177.673 158.649 171.314 158.676C165.523 158.712 164.746 155.758 160.189 153.705C156.889 152.222 152.949 152.971 150.93 156.489C150.073 157.981 148.688 158.811 146.942 158.694C145.788 158.612 144.627 158.621 143.474 158.694C141.511 158.811 140.11 157.952 139.044 156.171C137.635 153.819 135.36 152.863 133.021 152.954C130.499 153.044 128.208 154.329 126.126 156.029C121.809 159.574 118.941 158.432 114.352 158.685C109.666 158.947 106.559 154.97 106.535 150.24C106.519 145.357 107.256 145.349 107.744 141.623C104.765 143.712 100.784 148.044 98.3814 153.307C96.7395 156.906 96.7635 160.737 97.4122 164.58C99.3264 175.847 112.55 176.57 122.609 175.53C125.22 175.259 127.807 174.746 130.402 174.258C132.981 173.769 135.528 173.57 138.051 174.646C139.333 175.189 140.622 175.902 141.96 176.065C144.955 176.427 148.047 176.753 150.858 175.252C153.717 173.733 156.665 173.407 159.62 174.266C167.662 176.59 183.952 177.595 189.767 170.722C191.385 168.796 192.426 166.654 192.819 164.032C193.467 159.637 193.107 155.413 191.025 151.579ZM110.339 134.875C110.299 134.975 110.267 135.076 110.227 135.176C110.275 135.095 110.323 135.01 110.379 134.92L110.339 134.875ZM179.788 134.893C179.868 134.947 179.94 135.002 180.02 135.057C179.932 135.011 179.836 134.978 179.748 134.942L179.788 134.893Z" fill="#E3E3E3"/>
    <path d="M16.0742 218.062H26.7734V211.195H29.8203V228H26.7734V221.133H16.0742V228H13.0273V211.195H16.0742V218.062ZM46.7422 223.723C46.7422 224.246 46.6758 224.719 46.543 225.141C46.4102 225.555 46.2344 225.922 46.0156 226.242C45.7969 226.555 45.543 226.824 45.2539 227.051C44.9648 227.27 44.6602 227.449 44.3398 227.59C44.0273 227.73 43.707 227.836 43.3789 227.906C43.0586 227.969 42.7539 228 42.4648 228H36.9688C36.5469 228 36.0859 227.926 35.5859 227.777C35.0859 227.629 34.6211 227.387 34.1914 227.051C33.7695 226.707 33.4141 226.266 33.125 225.727C32.8438 225.18 32.7031 224.512 32.7031 223.723V219.598C32.7031 218.816 32.8438 218.156 33.125 217.617C33.4141 217.07 33.7695 216.629 34.1914 216.293C34.6211 215.949 35.0859 215.703 35.5859 215.555C36.0859 215.406 36.5469 215.332 36.9688 215.332H42.4648C43.2461 215.332 43.9102 215.473 44.457 215.754C45.0039 216.035 45.4453 216.391 45.7812 216.82C46.1172 217.242 46.3594 217.703 46.5078 218.203C46.6641 218.703 46.7422 219.168 46.7422 219.598V223.723ZM43.6953 219.621C43.6953 219.199 43.5898 218.887 43.3789 218.684C43.168 218.48 42.8633 218.379 42.4648 218.379H36.9922C36.5859 218.379 36.2773 218.484 36.0664 218.695C35.8555 218.898 35.75 219.199 35.75 219.598V223.723C35.75 224.121 35.8555 224.426 36.0664 224.637C36.2773 224.848 36.5859 224.953 36.9922 224.953H42.4648C42.8789 224.953 43.1875 224.848 43.3906 224.637C43.5938 224.426 43.6953 224.121 43.6953 223.723V219.621ZM54.9102 228H53.5508C53.1133 228 52.6445 227.926 52.1445 227.777C51.6523 227.629 51.1914 227.387 50.7617 227.051C50.332 226.707 49.9766 226.266 49.6953 225.727C49.4141 225.18 49.2734 224.512 49.2734 223.723V209.977H52.3203V223.723C52.3203 224.098 52.4375 224.398 52.6719 224.625C52.9062 224.844 53.1992 224.953 53.5508 224.953H54.9102V228ZM69.9453 223.805C69.9453 224.227 69.8711 224.684 69.7227 225.176C69.5742 225.66 69.332 226.113 68.9961 226.535C68.668 226.949 68.2344 227.297 67.6953 227.578C67.1641 227.859 66.5156 228 65.75 228H60.2539C59.832 228 59.375 227.926 58.8828 227.777C58.3984 227.629 57.9453 227.391 57.5234 227.062C57.1094 226.727 56.7617 226.293 56.4805 225.762C56.1992 225.223 56.0586 224.57 56.0586 223.805C56.0586 223.383 56.1328 222.926 56.2812 222.434C56.4297 221.941 56.668 221.488 56.9961 221.074C57.332 220.652 57.7656 220.301 58.2969 220.02C58.8359 219.738 59.4883 219.598 60.2539 219.598H65.75V222.504H60.2539C59.8398 222.504 59.5195 222.633 59.293 222.891C59.0664 223.141 58.9531 223.453 58.9531 223.828C58.9531 224.227 59.082 224.539 59.3398 224.766C59.6055 224.984 59.918 225.094 60.2773 225.094H65.75C66.1641 225.094 66.4844 224.969 66.7109 224.719C66.9375 224.469 67.0508 224.156 67.0508 223.781V219.527C67.0508 219.129 66.9258 218.812 66.6758 218.578C66.4336 218.344 66.125 218.227 65.75 218.227H59.0586V215.332H65.75C66.1719 215.332 66.625 215.406 67.1094 215.555C67.6016 215.703 68.0547 215.945 68.4688 216.281C68.8906 216.609 69.2422 217.043 69.5234 217.582C69.8047 218.113 69.9453 218.762 69.9453 219.527V223.805ZM73.8008 230.156H71.6562L72.7461 224.262H75.6172L73.8008 230.156ZM98.0117 223.723C98.0117 224.246 97.9453 224.719 97.8125 225.141C97.6797 225.555 97.5039 225.922 97.2852 226.242C97.0664 226.555 96.8125 226.824 96.5234 227.051C96.2344 227.27 95.9297 227.449 95.6094 227.59C95.2969 227.73 94.9766 227.836 94.6484 227.906C94.3281 227.969 94.0234 228 93.7344 228H85.4844V224.953H93.7109C94.125 224.953 94.4375 224.848 94.6484 224.637C94.8594 224.426 94.9648 224.121 94.9648 223.723C94.9258 222.91 94.5156 222.504 93.7344 222.504H89.0117C88.3398 222.504 87.7695 222.387 87.3008 222.152C86.832 221.918 86.4492 221.625 86.1523 221.273C85.8633 220.922 85.6523 220.543 85.5195 220.137C85.3945 219.73 85.332 219.352 85.332 219C85.332 218.32 85.4531 217.75 85.6953 217.289C85.9375 216.82 86.2422 216.441 86.6094 216.152C86.9766 215.863 87.375 215.656 87.8047 215.531C88.2344 215.398 88.6367 215.332 89.0117 215.332H96.5V218.379H89.0352C88.8789 218.379 88.7539 218.398 88.6602 218.438C88.5742 218.469 88.5078 218.516 88.4609 218.578C88.4219 218.633 88.3984 218.695 88.3906 218.766C88.3828 218.828 88.3789 218.891 88.3789 218.953C88.3867 219.078 88.4102 219.176 88.4492 219.246C88.4883 219.316 88.5352 219.367 88.5898 219.398C88.6523 219.43 88.7188 219.449 88.7891 219.457C88.8672 219.457 88.9414 219.457 89.0117 219.457H93.7344C94.5156 219.457 95.1797 219.598 95.7266 219.879C96.2734 220.16 96.7148 220.516 97.0508 220.945C97.3867 221.367 97.6289 221.828 97.7773 222.328C97.9336 222.828 98.0117 223.293 98.0117 223.723ZM113.938 223.723C113.938 224.246 113.871 224.719 113.738 225.141C113.605 225.555 113.43 225.922 113.211 226.242C112.992 226.555 112.738 226.824 112.449 227.051C112.16 227.27 111.855 227.449 111.535 227.59C111.223 227.73 110.902 227.836 110.574 227.906C110.254 227.969 109.949 228 109.66 228H104.164C103.742 228 103.281 227.926 102.781 227.777C102.281 227.629 101.816 227.387 101.387 227.051C100.965 226.707 100.609 226.266 100.32 225.727C100.039 225.18 99.8984 224.512 99.8984 223.723V219.598C99.8984 218.816 100.039 218.156 100.32 217.617C100.609 217.07 100.965 216.629 101.387 216.293C101.816 215.949 102.281 215.703 102.781 215.555C103.281 215.406 103.742 215.332 104.164 215.332H109.66C110.441 215.332 111.105 215.473 111.652 215.754C112.199 216.035 112.641 216.391 112.977 216.82C113.312 217.242 113.555 217.703 113.703 218.203C113.859 218.703 113.938 219.168 113.938 219.598V223.723ZM110.891 219.621C110.891 219.199 110.785 218.887 110.574 218.684C110.363 218.48 110.059 218.379 109.66 218.379H104.188C103.781 218.379 103.473 218.484 103.262 218.695C103.051 218.898 102.945 219.199 102.945 219.598V223.723C102.945 224.121 103.051 224.426 103.262 224.637C103.473 224.848 103.781 224.953 104.188 224.953H109.66C110.074 224.953 110.383 224.848 110.586 224.637C110.789 224.426 110.891 224.121 110.891 223.723V219.621ZM130.508 229.219C130.508 229.742 130.441 230.211 130.309 230.625C130.176 231.047 130 231.414 129.781 231.727C129.562 232.047 129.309 232.316 129.02 232.535C128.73 232.762 128.426 232.945 128.105 233.086C127.793 233.227 127.477 233.328 127.156 233.391C126.836 233.461 126.531 233.496 126.242 233.496H120.746V230.449H126.242C126.648 230.449 126.953 230.344 127.156 230.133C127.359 229.922 127.461 229.617 127.461 229.219V215.332H130.508V229.219ZM126.242 228H120.746C120.309 228 119.84 227.926 119.34 227.777C118.848 227.629 118.387 227.387 117.957 227.051C117.527 226.707 117.172 226.266 116.891 225.727C116.609 225.18 116.469 224.512 116.469 223.723V215.332H119.516V223.723C119.516 224.121 119.621 224.426 119.832 224.637C120.043 224.848 120.355 224.953 120.77 224.953H126.242V228ZM161.117 228H158.047V217.992L152.645 227.496C152.512 227.738 152.324 227.922 152.082 228.047C151.848 228.172 151.594 228.234 151.32 228.234C151.055 228.234 150.805 228.172 150.57 228.047C150.344 227.922 150.164 227.738 150.031 227.496L144.605 217.992V228H141.559V212.496C141.559 212.145 141.66 211.832 141.863 211.559C142.074 211.285 142.348 211.102 142.684 211.008C142.848 210.969 143.012 210.957 143.176 210.973C143.34 210.98 143.496 211.016 143.645 211.078C143.801 211.133 143.941 211.215 144.066 211.324C144.191 211.426 144.297 211.551 144.383 211.699L151.32 223.758L158.258 211.699C158.438 211.402 158.684 211.191 158.996 211.066C159.316 210.941 159.648 210.922 159.992 211.008C160.32 211.102 160.59 211.285 160.801 211.559C161.012 211.832 161.117 212.145 161.117 212.496V228ZM175.344 218.379H168.488C168.074 218.379 167.762 218.484 167.551 218.695C167.34 218.898 167.234 219.199 167.234 219.598V228H164.188V219.598C164.188 219.074 164.254 218.605 164.387 218.191C164.52 217.777 164.695 217.414 164.914 217.102C165.141 216.781 165.398 216.512 165.688 216.293C165.977 216.066 166.277 215.883 166.59 215.742C166.91 215.602 167.23 215.5 167.551 215.438C167.879 215.367 168.184 215.332 168.465 215.332H175.344V218.379ZM178.895 226.465C178.895 226.676 178.852 226.875 178.766 227.062C178.688 227.242 178.578 227.402 178.438 227.543C178.305 227.676 178.145 227.781 177.957 227.859C177.777 227.938 177.586 227.977 177.383 227.977C177.172 227.977 176.973 227.938 176.785 227.859C176.605 227.781 176.445 227.676 176.305 227.543C176.172 227.402 176.066 227.242 175.988 227.062C175.91 226.875 175.871 226.676 175.871 226.465C175.871 226.262 175.91 226.07 175.988 225.891C176.066 225.703 176.172 225.543 176.305 225.41C176.445 225.27 176.605 225.16 176.785 225.082C176.973 224.996 177.172 224.953 177.383 224.953C177.586 224.953 177.777 224.996 177.957 225.082C178.145 225.16 178.305 225.27 178.438 225.41C178.578 225.543 178.688 225.703 178.766 225.891C178.852 226.07 178.895 226.262 178.895 226.465ZM206.211 216.844C206.211 217.539 206.125 218.16 205.953 218.707C205.781 219.254 205.547 219.738 205.25 220.16C204.961 220.574 204.625 220.93 204.242 221.227C203.859 221.523 203.457 221.77 203.035 221.965C202.621 222.152 202.199 222.289 201.77 222.375C201.348 222.461 200.949 222.504 200.574 222.504L206.938 228H202.227L195.875 222.504H193.684V219.457H200.574C200.957 219.426 201.305 219.348 201.617 219.223C201.938 219.09 202.211 218.914 202.438 218.695C202.672 218.477 202.852 218.215 202.977 217.91C203.102 217.598 203.164 217.242 203.164 216.844V214.922C203.164 214.75 203.141 214.621 203.094 214.535C203.055 214.441 203 214.375 202.93 214.336C202.867 214.289 202.797 214.262 202.719 214.254C202.648 214.246 202.582 214.242 202.52 214.242H192.465V228H189.418V212.73C189.418 212.52 189.457 212.32 189.535 212.133C189.613 211.945 189.719 211.781 189.852 211.641C189.992 211.5 190.156 211.391 190.344 211.312C190.531 211.234 190.734 211.195 190.953 211.195H202.52C203.199 211.195 203.773 211.32 204.242 211.57C204.711 211.812 205.09 212.121 205.379 212.496C205.676 212.863 205.887 213.262 206.012 213.691C206.145 214.121 206.211 214.523 206.211 214.898V216.844ZM222.57 223.723C222.57 224.246 222.504 224.719 222.371 225.141C222.238 225.555 222.062 225.922 221.844 226.242C221.625 226.555 221.371 226.824 221.082 227.051C220.793 227.27 220.488 227.449 220.168 227.59C219.855 227.73 219.535 227.836 219.207 227.906C218.887 227.969 218.582 228 218.293 228H212.797C212.375 228 211.914 227.926 211.414 227.777C210.914 227.629 210.449 227.387 210.02 227.051C209.598 226.707 209.242 226.266 208.953 225.727C208.672 225.18 208.531 224.512 208.531 223.723V219.598C208.531 218.816 208.672 218.156 208.953 217.617C209.242 217.07 209.598 216.629 210.02 216.293C210.449 215.949 210.914 215.703 211.414 215.555C211.914 215.406 212.375 215.332 212.797 215.332H218.293C219.074 215.332 219.738 215.473 220.285 215.754C220.832 216.035 221.273 216.391 221.609 216.82C221.945 217.242 222.188 217.703 222.336 218.203C222.492 218.703 222.57 219.168 222.57 219.598V223.723ZM219.523 219.621C219.523 219.199 219.418 218.887 219.207 218.684C218.996 218.48 218.691 218.379 218.293 218.379H212.82C212.414 218.379 212.105 218.484 211.895 218.695C211.684 218.898 211.578 219.199 211.578 219.598V223.723C211.578 224.121 211.684 224.426 211.895 224.637C212.105 224.848 212.414 224.953 212.82 224.953H218.293C218.707 224.953 219.016 224.848 219.219 224.637C219.422 224.426 219.523 224.121 219.523 223.723V219.621ZM239.141 223.723C239.141 224.012 239.105 224.316 239.035 224.637C238.973 224.957 238.871 225.277 238.73 225.598C238.59 225.91 238.406 226.211 238.18 226.5C237.961 226.789 237.691 227.047 237.371 227.273C237.059 227.492 236.695 227.668 236.281 227.801C235.867 227.934 235.398 228 234.875 228H229.379C229.09 228 228.785 227.969 228.465 227.906C228.145 227.836 227.824 227.73 227.504 227.59C227.191 227.449 226.891 227.27 226.602 227.051C226.312 226.824 226.055 226.555 225.828 226.242C225.609 225.922 225.434 225.555 225.301 225.141C225.168 224.719 225.102 224.246 225.102 223.723V209.977H228.148V223.723C228.148 224.098 228.266 224.398 228.5 224.625C228.734 224.844 229.027 224.953 229.379 224.953H234.875C235.258 224.953 235.555 224.84 235.766 224.613C235.984 224.387 236.094 224.09 236.094 223.723V219.598C236.094 219.215 235.98 218.918 235.754 218.707C235.527 218.488 235.234 218.379 234.875 218.379H229.379V215.332H234.875C235.164 215.332 235.469 215.367 235.789 215.438C236.109 215.5 236.426 215.602 236.738 215.742C237.059 215.883 237.363 216.066 237.652 216.293C237.941 216.512 238.195 216.781 238.414 217.102C238.633 217.414 238.809 217.777 238.941 218.191C239.074 218.605 239.141 219.074 239.141 219.598V223.723ZM255.523 223.723C255.523 224.246 255.457 224.719 255.324 225.141C255.191 225.555 255.016 225.922 254.797 226.242C254.578 226.555 254.324 226.824 254.035 227.051C253.746 227.27 253.441 227.449 253.121 227.59C252.809 227.73 252.488 227.836 252.16 227.906C251.84 227.969 251.535 228 251.246 228H245.75C245.328 228 244.867 227.926 244.367 227.777C243.867 227.629 243.402 227.387 242.973 227.051C242.551 226.707 242.195 226.266 241.906 225.727C241.625 225.18 241.484 224.512 241.484 223.723V219.598C241.484 218.816 241.625 218.156 241.906 217.617C242.195 217.07 242.551 216.629 242.973 216.293C243.402 215.949 243.867 215.703 244.367 215.555C244.867 215.406 245.328 215.332 245.75 215.332H251.246C252.027 215.332 252.691 215.473 253.238 215.754C253.785 216.035 254.227 216.391 254.562 216.82C254.898 217.242 255.141 217.703 255.289 218.203C255.445 218.703 255.523 219.168 255.523 219.598V223.723ZM252.477 219.621C252.477 219.199 252.371 218.887 252.16 218.684C251.949 218.48 251.645 218.379 251.246 218.379H245.773C245.367 218.379 245.059 218.484 244.848 218.695C244.637 218.898 244.531 219.199 244.531 219.598V223.723C244.531 224.121 244.637 224.426 244.848 224.637C245.059 224.848 245.367 224.953 245.773 224.953H251.246C251.66 224.953 251.969 224.848 252.172 224.637C252.375 224.426 252.477 224.121 252.477 223.723V219.621ZM269.574 218.379H264.254V228H261.172V218.379H257.211V215.332H261.172V211.195H264.254V215.332H269.574V218.379ZM38.1016 241.484C38.1016 241.948 38.0443 242.362 37.9297 242.727C37.8151 243.091 37.6589 243.414 37.4609 243.695C37.2682 243.971 37.0443 244.208 36.7891 244.406C36.5339 244.604 36.2656 244.766 35.9844 244.891C35.7083 245.016 35.4271 245.107 35.1406 245.164C34.8594 245.221 34.5938 245.25 34.3438 245.25H29.75V243.219H34.3438C34.6042 243.198 34.8385 243.146 35.0469 243.062C35.2604 242.974 35.4427 242.857 35.5938 242.711C35.7448 242.565 35.862 242.391 35.9453 242.188C36.0286 241.979 36.0703 241.745 36.0703 241.484V240.562C36.0443 240.307 35.9896 240.073 35.9062 239.859C35.8229 239.646 35.7083 239.464 35.5625 239.312C35.4219 239.161 35.25 239.044 35.0469 238.961C34.8438 238.872 34.6094 238.828 34.3438 238.828H29.7656C29.4948 238.828 29.2891 238.898 29.1484 239.039C29.0078 239.18 28.9375 239.383 28.9375 239.648V248H26.9062V239.648C26.9062 239.128 27 238.685 27.1875 238.32C27.3802 237.956 27.6172 237.661 27.8984 237.438C28.1849 237.214 28.4948 237.052 28.8281 236.953C29.1615 236.849 29.4688 236.797 29.75 236.797H34.3438C34.8021 236.797 35.2135 236.857 35.5781 236.977C35.9427 237.091 36.263 237.247 36.5391 237.445C36.8203 237.638 37.0573 237.862 37.25 238.117C37.4479 238.372 37.6094 238.641 37.7344 238.922C37.8646 239.198 37.9583 239.479 38.0156 239.766C38.0729 240.047 38.1016 240.312 38.1016 240.562V241.484ZM46.9609 241.586H42.3906C42.1146 241.586 41.9062 241.656 41.7656 241.797C41.625 241.932 41.5547 242.133 41.5547 242.398V248H39.5234V242.398C39.5234 242.049 39.5677 241.737 39.6562 241.461C39.7448 241.185 39.862 240.943 40.0078 240.734C40.1589 240.521 40.3307 240.341 40.5234 240.195C40.7161 240.044 40.9167 239.922 41.125 239.828C41.3385 239.734 41.5521 239.667 41.7656 239.625C41.9844 239.578 42.1875 239.555 42.375 239.555H46.9609V241.586ZM57.3594 242.352C57.3594 242.633 57.3099 242.938 57.2109 243.266C57.112 243.589 56.9505 243.891 56.7266 244.172C56.5078 244.448 56.2188 244.68 55.8594 244.867C55.5052 245.055 55.0729 245.148 54.5625 245.148H50.8984V243.219H54.5625C54.8385 243.219 55.0521 243.135 55.2031 242.969C55.3542 242.797 55.4297 242.586 55.4297 242.336C55.4297 242.07 55.3438 241.862 55.1719 241.711C55.0052 241.56 54.8021 241.484 54.5625 241.484H50.8984C50.6224 241.484 50.4089 241.57 50.2578 241.742C50.1068 241.909 50.0312 242.117 50.0312 242.367V245.203C50.0312 245.474 50.1146 245.685 50.2812 245.836C50.4531 245.987 50.6641 246.062 50.9141 246.062H54.5625V248H50.8984C50.6172 248 50.3125 247.951 49.9844 247.852C49.6615 247.753 49.3594 247.594 49.0781 247.375C48.8021 247.151 48.5703 246.862 48.3828 246.508C48.1953 246.148 48.1016 245.714 48.1016 245.203V242.352C48.1016 242.07 48.151 241.768 48.25 241.445C48.349 241.117 48.5078 240.815 48.7266 240.539C48.9505 240.258 49.2396 240.023 49.5938 239.836C49.9531 239.648 50.388 239.555 50.8984 239.555H54.5625C54.8438 239.555 55.1458 239.604 55.4688 239.703C55.7969 239.802 56.099 239.964 56.375 240.188C56.6562 240.406 56.8906 240.695 57.0781 241.055C57.2656 241.409 57.3594 241.841 57.3594 242.352ZM67.9141 248.812C67.9141 249.161 67.8698 249.474 67.7812 249.75C67.6927 250.031 67.5755 250.276 67.4297 250.484C67.2839 250.698 67.1146 250.878 66.9219 251.023C66.7292 251.174 66.526 251.297 66.3125 251.391C66.1042 251.484 65.8906 251.552 65.6719 251.594C65.4583 251.641 65.2552 251.664 65.0625 251.664H61.3984V249.633H65.0625C65.3385 249.633 65.5443 249.562 65.6797 249.422C65.8151 249.281 65.8828 249.078 65.8828 248.812V242.398C65.8828 242.133 65.8151 241.932 65.6797 241.797C65.5443 241.656 65.3385 241.586 65.0625 241.586H61.3984C61.1484 241.586 60.9505 241.664 60.8047 241.82C60.6589 241.971 60.5859 242.164 60.5859 242.398V245.148C60.5859 245.414 60.6562 245.617 60.7969 245.758C60.9375 245.898 61.1432 245.969 61.4141 245.969H65.0625V248H61.3984C61.2057 248 61.0026 247.979 60.7891 247.938C60.5755 247.891 60.362 247.82 60.1484 247.727C59.9401 247.633 59.7396 247.513 59.5469 247.367C59.3542 247.216 59.1849 247.036 59.0391 246.828C58.8932 246.615 58.776 246.37 58.6875 246.094C58.599 245.812 58.5547 245.497 58.5547 245.148V242.398C58.5547 242.206 58.5755 242.003 58.6172 241.789C58.6641 241.576 58.7344 241.365 58.8281 241.156C58.9219 240.943 59.0417 240.74 59.1875 240.547C59.3385 240.354 59.5182 240.185 59.7266 240.039C59.9401 239.893 60.1849 239.776 60.4609 239.688C60.737 239.599 61.0495 239.555 61.3984 239.555H65.0625C65.2552 239.555 65.4583 239.578 65.6719 239.625C65.8906 239.667 66.1042 239.734 66.3125 239.828C66.526 239.922 66.7292 240.044 66.9219 240.195C67.1146 240.341 67.2839 240.521 67.4297 240.734C67.5755 240.943 67.6927 241.185 67.7812 241.461C67.8698 241.737 67.9141 242.049 67.9141 242.398V248.812ZM79.0078 246.977C79.0078 247.122 78.9818 247.258 78.9297 247.383C78.8776 247.508 78.8047 247.617 78.7109 247.711C78.6224 247.799 78.5156 247.87 78.3906 247.922C78.2708 247.974 78.1406 248 78 248H73.4062C73.1562 248 72.888 247.971 72.6016 247.914C72.3203 247.857 72.0417 247.766 71.7656 247.641C71.4896 247.51 71.2214 247.349 70.9609 247.156C70.7057 246.958 70.4818 246.721 70.2891 246.445C70.0964 246.164 69.9401 245.841 69.8203 245.477C69.7057 245.112 69.6484 244.701 69.6484 244.242V239.555H71.6797V244.242C71.6797 244.508 71.724 244.747 71.8125 244.961C71.9062 245.169 72.0312 245.349 72.1875 245.5C72.3438 245.651 72.526 245.768 72.7344 245.852C72.9479 245.93 73.1771 245.969 73.4219 245.969H76.9766V239.555H79.0078V246.977ZM78.4766 237.484L74.3984 238.945L73.8594 237.773L77.6172 235.586L78.4766 237.484ZM90.2734 248H88.2422V243.312C88.2422 243.047 88.1953 242.81 88.1016 242.602C88.013 242.388 87.8906 242.206 87.7344 242.055C87.5781 241.904 87.3932 241.789 87.1797 241.711C86.9714 241.628 86.7448 241.586 86.5 241.586H82.9453V248H80.9141V240.562C80.9141 240.422 80.9401 240.292 80.9922 240.172C81.0443 240.047 81.1172 239.94 81.2109 239.852C81.3047 239.758 81.4141 239.685 81.5391 239.633C81.6641 239.581 81.7969 239.555 81.9375 239.555H86.5156C86.7708 239.555 87.0391 239.583 87.3203 239.641C87.6068 239.698 87.888 239.792 88.1641 239.922C88.4453 240.047 88.7109 240.208 88.9609 240.406C89.2161 240.599 89.4401 240.836 89.6328 241.117C89.8307 241.393 89.987 241.714 90.1016 242.078C90.2161 242.443 90.2734 242.854 90.2734 243.312V248ZM99.4844 241.586H95.9375V248H93.8828V241.586H91.2422V239.555H93.8828V236.797H95.9375V239.555H99.4844V241.586ZM109.055 245.203C109.055 245.484 109.005 245.789 108.906 246.117C108.807 246.44 108.646 246.742 108.422 247.023C108.203 247.299 107.914 247.531 107.555 247.719C107.201 247.906 106.768 248 106.258 248H102.594C102.312 248 102.008 247.951 101.68 247.852C101.357 247.753 101.055 247.594 100.773 247.375C100.497 247.151 100.266 246.862 100.078 246.508C99.8906 246.148 99.7969 245.714 99.7969 245.203C99.7969 244.922 99.8464 244.617 99.9453 244.289C100.044 243.961 100.203 243.659 100.422 243.383C100.646 243.102 100.935 242.867 101.289 242.68C101.648 242.492 102.083 242.398 102.594 242.398H106.258V244.336H102.594C102.318 244.336 102.104 244.422 101.953 244.594C101.802 244.76 101.727 244.969 101.727 245.219C101.727 245.484 101.812 245.693 101.984 245.844C102.161 245.99 102.37 246.062 102.609 246.062H106.258C106.534 246.062 106.747 245.979 106.898 245.812C107.049 245.646 107.125 245.438 107.125 245.188V242.352C107.125 242.086 107.042 241.875 106.875 241.719C106.714 241.562 106.508 241.484 106.258 241.484H101.797V239.555H106.258C106.539 239.555 106.841 239.604 107.164 239.703C107.492 239.802 107.794 239.964 108.07 240.188C108.352 240.406 108.586 240.695 108.773 241.055C108.961 241.409 109.055 241.841 109.055 242.352V245.203ZM118.328 248H116.297V242.398C116.297 242.133 116.227 241.932 116.086 241.797C115.945 241.656 115.737 241.586 115.461 241.586H112.82V248H110.789V240.562C110.789 240.422 110.815 240.292 110.867 240.172C110.919 240.047 110.992 239.94 111.086 239.852C111.18 239.758 111.289 239.685 111.414 239.633C111.539 239.581 111.672 239.555 111.812 239.555H115.477C115.758 239.555 116.06 239.604 116.383 239.703C116.706 239.802 117.013 239.961 117.305 240.18V239.555H120.055C120.247 239.555 120.451 239.578 120.664 239.625C120.878 239.667 121.089 239.734 121.297 239.828C121.51 239.922 121.714 240.044 121.906 240.195C122.099 240.341 122.268 240.521 122.414 240.734C122.56 240.943 122.677 241.185 122.766 241.461C122.854 241.737 122.898 242.049 122.898 242.398V248H120.867V242.398C120.867 242.133 120.799 241.932 120.664 241.797C120.534 241.656 120.331 241.586 120.055 241.586H118.227C118.294 241.836 118.328 242.107 118.328 242.398V248ZM133.859 242.352C133.859 242.633 133.81 242.938 133.711 243.266C133.612 243.589 133.451 243.891 133.227 244.172C133.008 244.448 132.719 244.68 132.359 244.867C132.005 245.055 131.573 245.148 131.062 245.148H127.398V243.219H131.062C131.339 243.219 131.552 243.135 131.703 242.969C131.854 242.797 131.93 242.586 131.93 242.336C131.93 242.07 131.844 241.862 131.672 241.711C131.505 241.56 131.302 241.484 131.062 241.484H127.398C127.122 241.484 126.909 241.57 126.758 241.742C126.607 241.909 126.531 242.117 126.531 242.367V245.203C126.531 245.474 126.615 245.685 126.781 245.836C126.953 245.987 127.164 246.062 127.414 246.062H131.062V248H127.398C127.117 248 126.812 247.951 126.484 247.852C126.161 247.753 125.859 247.594 125.578 247.375C125.302 247.151 125.07 246.862 124.883 246.508C124.695 246.148 124.602 245.714 124.602 245.203V242.352C124.602 242.07 124.651 241.768 124.75 241.445C124.849 241.117 125.008 240.815 125.227 240.539C125.451 240.258 125.74 240.023 126.094 239.836C126.453 239.648 126.888 239.555 127.398 239.555H131.062C131.344 239.555 131.646 239.604 131.969 239.703C132.297 239.802 132.599 239.964 132.875 240.188C133.156 240.406 133.391 240.695 133.578 241.055C133.766 241.409 133.859 241.841 133.859 242.352ZM144.141 248H143.234C142.943 248 142.63 247.951 142.297 247.852C141.969 247.753 141.661 247.591 141.375 247.367C141.089 247.138 140.852 246.844 140.664 246.484C140.477 246.12 140.383 245.674 140.383 245.148V235.984H142.414V245.148C142.414 245.398 142.492 245.599 142.648 245.75C142.805 245.896 143 245.969 143.234 245.969H144.141V248ZM154.633 245.148C154.633 245.497 154.589 245.812 154.5 246.094C154.411 246.37 154.294 246.615 154.148 246.828C154.003 247.036 153.833 247.216 153.641 247.367C153.448 247.513 153.245 247.633 153.031 247.727C152.823 247.82 152.609 247.891 152.391 247.938C152.177 247.979 151.974 248 151.781 248H148.117C147.836 248 147.529 247.951 147.195 247.852C146.862 247.753 146.552 247.591 146.266 247.367C145.984 247.138 145.747 246.844 145.555 246.484C145.367 246.12 145.273 245.674 145.273 245.148V242.398C145.273 241.878 145.367 241.438 145.555 241.078C145.747 240.714 145.984 240.419 146.266 240.195C146.552 239.966 146.862 239.802 147.195 239.703C147.529 239.604 147.836 239.555 148.117 239.555H151.781C152.302 239.555 152.745 239.648 153.109 239.836C153.474 240.023 153.768 240.26 153.992 240.547C154.216 240.828 154.378 241.135 154.477 241.469C154.581 241.802 154.633 242.112 154.633 242.398V245.148ZM152.602 242.414C152.602 242.133 152.531 241.924 152.391 241.789C152.25 241.654 152.047 241.586 151.781 241.586H148.133C147.862 241.586 147.656 241.656 147.516 241.797C147.375 241.932 147.305 242.133 147.305 242.398V245.148C147.305 245.414 147.375 245.617 147.516 245.758C147.656 245.898 147.862 245.969 148.133 245.969H151.781C152.057 245.969 152.263 245.898 152.398 245.758C152.534 245.617 152.602 245.414 152.602 245.148V242.414ZM170.758 250.641H168.727V242.398C168.727 242.133 168.659 241.932 168.523 241.797C168.388 241.656 168.182 241.586 167.906 241.586H164.242C163.992 241.586 163.794 241.664 163.648 241.82C163.503 241.971 163.43 242.164 163.43 242.398V245.148C163.43 245.414 163.5 245.617 163.641 245.758C163.781 245.898 163.987 245.969 164.258 245.969H167.906V248H164.242C163.961 248 163.654 247.951 163.32 247.852C162.987 247.753 162.677 247.591 162.391 247.367C162.109 247.138 161.872 246.844 161.68 246.484C161.492 246.12 161.398 245.674 161.398 245.148V242.398C161.398 242.206 161.419 242.003 161.461 241.789C161.508 241.576 161.578 241.365 161.672 241.156C161.766 240.943 161.885 240.74 162.031 240.547C162.182 240.354 162.362 240.185 162.57 240.039C162.784 239.893 163.029 239.776 163.305 239.688C163.581 239.599 163.893 239.555 164.242 239.555H167.906C168.099 239.555 168.302 239.578 168.516 239.625C168.734 239.667 168.948 239.734 169.156 239.828C169.37 239.922 169.573 240.044 169.766 240.195C169.958 240.341 170.128 240.521 170.273 240.734C170.419 240.943 170.536 241.185 170.625 241.461C170.714 241.737 170.758 242.049 170.758 242.398V250.641ZM181.852 246.977C181.852 247.122 181.826 247.258 181.773 247.383C181.721 247.508 181.648 247.617 181.555 247.711C181.466 247.799 181.359 247.87 181.234 247.922C181.115 247.974 180.984 248 180.844 248H176.25C176 248 175.732 247.971 175.445 247.914C175.164 247.857 174.885 247.766 174.609 247.641C174.333 247.51 174.065 247.349 173.805 247.156C173.549 246.958 173.326 246.721 173.133 246.445C172.94 246.164 172.784 245.841 172.664 245.477C172.549 245.112 172.492 244.701 172.492 244.242V239.555H174.523V244.242C174.523 244.508 174.568 244.747 174.656 244.961C174.75 245.169 174.875 245.349 175.031 245.5C175.188 245.651 175.37 245.768 175.578 245.852C175.792 245.93 176.021 245.969 176.266 245.969H179.82V239.555H181.852V246.977ZM192.844 242.352C192.844 242.633 192.794 242.938 192.695 243.266C192.596 243.589 192.435 243.891 192.211 244.172C191.992 244.448 191.703 244.68 191.344 244.867C190.99 245.055 190.557 245.148 190.047 245.148H186.383V243.219H190.047C190.323 243.219 190.536 243.135 190.688 242.969C190.839 242.797 190.914 242.586 190.914 242.336C190.914 242.07 190.828 241.862 190.656 241.711C190.49 241.56 190.286 241.484 190.047 241.484H186.383C186.107 241.484 185.893 241.57 185.742 241.742C185.591 241.909 185.516 242.117 185.516 242.367V245.203C185.516 245.474 185.599 245.685 185.766 245.836C185.938 245.987 186.148 246.062 186.398 246.062H190.047V248H186.383C186.102 248 185.797 247.951 185.469 247.852C185.146 247.753 184.844 247.594 184.562 247.375C184.286 247.151 184.055 246.862 183.867 246.508C183.68 246.148 183.586 245.714 183.586 245.203V242.352C183.586 242.07 183.635 241.768 183.734 241.445C183.833 241.117 183.992 240.815 184.211 240.539C184.435 240.258 184.724 240.023 185.078 239.836C185.438 239.648 185.872 239.555 186.383 239.555H190.047C190.328 239.555 190.63 239.604 190.953 239.703C191.281 239.802 191.583 239.964 191.859 240.188C192.141 240.406 192.375 240.695 192.562 241.055C192.75 241.409 192.844 241.841 192.844 242.352ZM208.602 250.641H206.57V242.398C206.57 242.133 206.503 241.932 206.367 241.797C206.232 241.656 206.026 241.586 205.75 241.586H202.086C201.836 241.586 201.638 241.664 201.492 241.82C201.346 241.971 201.273 242.164 201.273 242.398V245.148C201.273 245.414 201.344 245.617 201.484 245.758C201.625 245.898 201.831 245.969 202.102 245.969H205.75V248H202.086C201.805 248 201.497 247.951 201.164 247.852C200.831 247.753 200.521 247.591 200.234 247.367C199.953 247.138 199.716 246.844 199.523 246.484C199.336 246.12 199.242 245.674 199.242 245.148V242.398C199.242 242.206 199.263 242.003 199.305 241.789C199.352 241.576 199.422 241.365 199.516 241.156C199.609 240.943 199.729 240.74 199.875 240.547C200.026 240.354 200.206 240.185 200.414 240.039C200.628 239.893 200.872 239.776 201.148 239.688C201.424 239.599 201.737 239.555 202.086 239.555H205.75C205.943 239.555 206.146 239.578 206.359 239.625C206.578 239.667 206.792 239.734 207 239.828C207.214 239.922 207.417 240.044 207.609 240.195C207.802 240.341 207.971 240.521 208.117 240.734C208.263 240.943 208.38 241.185 208.469 241.461C208.557 241.737 208.602 242.049 208.602 242.398V250.641ZM219.695 246.977C219.695 247.122 219.669 247.258 219.617 247.383C219.565 247.508 219.492 247.617 219.398 247.711C219.31 247.799 219.203 247.87 219.078 247.922C218.958 247.974 218.828 248 218.688 248H214.094C213.844 248 213.576 247.971 213.289 247.914C213.008 247.857 212.729 247.766 212.453 247.641C212.177 247.51 211.909 247.349 211.648 247.156C211.393 246.958 211.169 246.721 210.977 246.445C210.784 246.164 210.628 245.841 210.508 245.477C210.393 245.112 210.336 244.701 210.336 244.242V239.555H212.367V244.242C212.367 244.508 212.411 244.747 212.5 244.961C212.594 245.169 212.719 245.349 212.875 245.5C213.031 245.651 213.214 245.768 213.422 245.852C213.635 245.93 213.865 245.969 214.109 245.969H217.664V239.555H219.695V246.977ZM223.664 237.82H221.633V235.984H223.664V237.82ZM223.664 248H221.633V239.555H223.664V248ZM234.703 242.352C234.703 242.633 234.654 242.938 234.555 243.266C234.456 243.589 234.294 243.891 234.07 244.172C233.852 244.448 233.562 244.68 233.203 244.867C232.849 245.055 232.417 245.148 231.906 245.148H228.242V243.219H231.906C232.182 243.219 232.396 243.135 232.547 242.969C232.698 242.797 232.773 242.586 232.773 242.336C232.773 242.07 232.688 241.862 232.516 241.711C232.349 241.56 232.146 241.484 231.906 241.484H228.242C227.966 241.484 227.753 241.57 227.602 241.742C227.451 241.909 227.375 242.117 227.375 242.367V245.203C227.375 245.474 227.458 245.685 227.625 245.836C227.797 245.987 228.008 246.062 228.258 246.062H231.906V248H228.242C227.961 248 227.656 247.951 227.328 247.852C227.005 247.753 226.703 247.594 226.422 247.375C226.146 247.151 225.914 246.862 225.727 246.508C225.539 246.148 225.445 245.714 225.445 245.203V242.352C225.445 242.07 225.495 241.768 225.594 241.445C225.693 241.117 225.852 240.815 226.07 240.539C226.294 240.258 226.583 240.023 226.938 239.836C227.297 239.648 227.732 239.555 228.242 239.555H231.906C232.188 239.555 232.49 239.604 232.812 239.703C233.141 239.802 233.443 239.964 233.719 240.188C234 240.406 234.234 240.695 234.422 241.055C234.609 241.409 234.703 241.841 234.703 242.352ZM243.461 241.586H238.891C238.615 241.586 238.406 241.656 238.266 241.797C238.125 241.932 238.055 242.133 238.055 242.398V248H236.023V242.398C236.023 242.049 236.068 241.737 236.156 241.461C236.245 241.185 236.362 240.943 236.508 240.734C236.659 240.521 236.831 240.341 237.023 240.195C237.216 240.044 237.417 239.922 237.625 239.828C237.839 239.734 238.052 239.667 238.266 239.625C238.484 239.578 238.688 239.555 238.875 239.555H243.461V241.586ZM252.867 245.203C252.867 245.484 252.818 245.789 252.719 246.117C252.62 246.44 252.458 246.742 252.234 247.023C252.016 247.299 251.727 247.531 251.367 247.719C251.013 247.906 250.581 248 250.07 248H246.406C246.125 248 245.82 247.951 245.492 247.852C245.169 247.753 244.867 247.594 244.586 247.375C244.31 247.151 244.078 246.862 243.891 246.508C243.703 246.148 243.609 245.714 243.609 245.203C243.609 244.922 243.659 244.617 243.758 244.289C243.857 243.961 244.016 243.659 244.234 243.383C244.458 243.102 244.747 242.867 245.102 242.68C245.461 242.492 245.896 242.398 246.406 242.398H250.07V244.336H246.406C246.13 244.336 245.917 244.422 245.766 244.594C245.615 244.76 245.539 244.969 245.539 245.219C245.539 245.484 245.625 245.693 245.797 245.844C245.974 245.99 246.182 246.062 246.422 246.062H250.07C250.346 246.062 250.56 245.979 250.711 245.812C250.862 245.646 250.938 245.438 250.938 245.188V242.352C250.938 242.086 250.854 241.875 250.688 241.719C250.526 241.562 250.32 241.484 250.07 241.484H245.609V239.555H250.07C250.352 239.555 250.654 239.604 250.977 239.703C251.305 239.802 251.607 239.964 251.883 240.188C252.164 240.406 252.398 240.695 252.586 241.055C252.773 241.409 252.867 241.841 252.867 242.352V245.203ZM262.766 245.148C262.766 245.497 262.721 245.812 262.633 246.094C262.544 246.37 262.427 246.615 262.281 246.828C262.135 247.036 261.966 247.216 261.773 247.367C261.581 247.513 261.378 247.633 261.164 247.727C260.956 247.82 260.742 247.891 260.523 247.938C260.31 247.979 260.107 248 259.914 248H254.414V245.969H259.898C260.174 245.969 260.383 245.898 260.523 245.758C260.664 245.617 260.734 245.414 260.734 245.148C260.708 244.607 260.435 244.336 259.914 244.336H256.766C256.318 244.336 255.938 244.258 255.625 244.102C255.312 243.945 255.057 243.75 254.859 243.516C254.667 243.281 254.526 243.029 254.438 242.758C254.354 242.487 254.312 242.234 254.312 242C254.312 241.547 254.393 241.167 254.555 240.859C254.716 240.547 254.919 240.294 255.164 240.102C255.409 239.909 255.674 239.771 255.961 239.688C256.247 239.599 256.516 239.555 256.766 239.555H261.758V241.586H256.781C256.677 241.586 256.594 241.599 256.531 241.625C256.474 241.646 256.43 241.677 256.398 241.719C256.372 241.755 256.357 241.797 256.352 241.844C256.346 241.885 256.344 241.927 256.344 241.969C256.349 242.052 256.365 242.117 256.391 242.164C256.417 242.211 256.448 242.245 256.484 242.266C256.526 242.286 256.57 242.299 256.617 242.305C256.669 242.305 256.719 242.305 256.766 242.305H259.914C260.435 242.305 260.878 242.398 261.242 242.586C261.607 242.773 261.901 243.01 262.125 243.297C262.349 243.578 262.51 243.885 262.609 244.219C262.714 244.552 262.766 244.862 262.766 245.148Z" fill="#E3E3E3"/>
    <path d="M193.896 66.4678C191.125 60.0127 184.458 59.776 175.448 61.066C175.517 46.0191 178.052 31.6489 182.868 15.9453C185.108 10.3218 168.418 0.110002 145.002 0C121.586 0.110002 104.895 10.3202 107.135 15.9436C111.923 31.5522 114.441 46.0224 114.531 61.061C105.533 59.776 98.8747 60.016 96.1031 66.4661C90.0665 78.4613 109.146 100 145.001 100C180.857 100 199.935 78.4613 193.896 66.4678ZM112.471 76.4046C112.471 76.4046 114.733 68.4961 114.371 64.3144C134.044 82.0214 155.96 82.0214 175.632 64.3144C175.707 68.5811 177.53 76.4046 177.53 76.4046C158.164 94.8332 131.839 94.8332 112.471 76.4046Z" fill="#E3E3E3"/>
    </svg>
